<svg xmlns="http://www.w3.org/2000/svg" xmlns:svg="http://www.w3.org/2000/svg" xmlns:xlink="http://www.w3.org/1999/xlink" id="svg4434" width="128" height="128" version="1.1"><defs id="defs4436"><linearGradient id="linearGradient5089"><stop id="stop5091" offset="0" style="stop-color:#fff;stop-opacity:1"/><stop id="stop5093" offset=".038" style="stop-color:#fff;stop-opacity:.23529412"/><stop id="stop5095" offset=".926" style="stop-color:#fff;stop-opacity:.15686275"/><stop id="stop5097" offset="1" style="stop-color:#fff;stop-opacity:.39215687"/></linearGradient><linearGradient id="linearGradient5184"><stop id="stop5186" offset="0" style="stop-color:#fff;stop-opacity:1"/><stop id="stop5188" offset="1" style="stop-color:#fff;stop-opacity:0"/></linearGradient><linearGradient id="linearGradient5176"><stop id="stop5178" offset="0" style="stop-color:#000;stop-opacity:1"/><stop id="stop5180" offset="1" style="stop-color:#000;stop-opacity:.47402596"/></linearGradient><linearGradient id="linearGradient4954"><stop style="stop-color:#fff;stop-opacity:1" id="stop4956" offset="0"/><stop style="stop-color:#fff;stop-opacity:.23529412" id="stop4958" offset=".038"/><stop style="stop-color:#fff;stop-opacity:.15686275" id="stop4960" offset=".885"/><stop style="stop-color:#fff;stop-opacity:.39215687" id="stop4962" offset="1"/></linearGradient><linearGradient id="linearGradient4136" x1="24" x2="24" y1="5.591" y2="42.262" gradientTransform="matrix(2.7297298,0,0,3.027027,-1.5135184,-75.146809)" gradientUnits="userSpaceOnUse" xlink:href="#linearGradient3924"/><linearGradient id="linearGradient3924"><stop style="stop-color:#fff;stop-opacity:1" id="stop3926" offset="0"/><stop style="stop-color:#fff;stop-opacity:.23529412" id="stop3928" offset=".038"/><stop style="stop-color:#fff;stop-opacity:.15686275" id="stop3930" offset=".967"/><stop style="stop-color:#fff;stop-opacity:.39215687" id="stop3932" offset="1"/></linearGradient><radialGradient id="radialGradient4093" cx="4.993" cy="43.5" r="2.5" fx="4.993" fy="43.5" gradientTransform="matrix(2.003784,0,0,1.4,27.98813,-17.4)" gradientUnits="userSpaceOnUse" xlink:href="#linearGradient3688-166-749-5"/><linearGradient id="linearGradient3688-166-749-5"><stop style="stop-color:#181818;stop-opacity:1" id="stop2883-0" offset="0"/><stop style="stop-color:#181818;stop-opacity:0" id="stop2885-5" offset="1"/></linearGradient><radialGradient id="radialGradient4095" cx="4.993" cy="43.5" r="2.5" fx="4.993" fy="43.5" gradientTransform="matrix(2.003784,0,0,1.4,-20.01187,-104.4)" gradientUnits="userSpaceOnUse" xlink:href="#linearGradient3688-464-309-8"/><linearGradient id="linearGradient3688-464-309-8"><stop style="stop-color:#181818;stop-opacity:1" id="stop2889-9" offset="0"/><stop style="stop-color:#181818;stop-opacity:0" id="stop2891-4" offset="1"/></linearGradient><linearGradient id="linearGradient4097" x1="25.058" x2="25.058" y1="47.028" y2="39.999" gradientUnits="userSpaceOnUse" xlink:href="#linearGradient3702-501-757-0"/><linearGradient id="linearGradient3702-501-757-0"><stop style="stop-color:#181818;stop-opacity:0" id="stop2895-0" offset="0"/><stop style="stop-color:#181818;stop-opacity:1" id="stop2897-2" offset=".5"/><stop style="stop-color:#181818;stop-opacity:0" id="stop2899-6" offset="1"/></linearGradient><linearGradient id="linearGradient3811"><stop style="stop-color:#000;stop-opacity:1" id="stop3813" offset="0"/><stop style="stop-color:#000;stop-opacity:0" id="stop3815" offset="1"/></linearGradient><radialGradient id="radialGradient4432" cx="-4.029" cy="93.468" r="35.338" fx="-4.029" fy="93.468" gradientTransform="matrix(1.5563924,0,0,0.16978827,70.270355,38.132101)" gradientUnits="userSpaceOnUse" xlink:href="#linearGradient3811"/><radialGradient id="radialGradient3044" cx="26.896" cy="4.342" r="27.5" fx="26.896" fy="4.342" gradientTransform="matrix(-1.7958387e-7,8.5818189,-10.036364,-1.6917273e-7,107.57707,-314.81754)" gradientUnits="userSpaceOnUse" xlink:href="#radialGradient3093-0-3-6-6-3"/><linearGradient id="linearGradient4950" x1="-6.029" x2="-6.029" y1="26.749" y2="47.132" gradientTransform="matrix(2.9131284,0,0,2.9436435,62.564321,-70.738962)" gradientUnits="userSpaceOnUse" xlink:href="#linearGradient2867-449-88-871-390-598-476-591-434-148-57-177-8-3-3-6-4-8-8-8-8"/><linearGradient id="linearGradient4952" x1="23.98" x2="23.98" y1="6.186" y2="41.822" gradientTransform="matrix(1.0541946,0,0,0.72958856,15.720408,15.487087)" gradientUnits="userSpaceOnUse" xlink:href="#linearGradient4954"/><linearGradient id="linearGradient5182" x1="65.036" x2="65.006" y1="-50.261" y2="-24.098" gradientTransform="translate(-1,0)" gradientUnits="userSpaceOnUse" xlink:href="#linearGradient5176"/><linearGradient id="linearGradient5190" x1="64.983" x2="64.175" y1="-20.916" y2="-46.019" gradientTransform="translate(-1,0)" gradientUnits="userSpaceOnUse" xlink:href="#linearGradient5184"/><linearGradient id="linearGradient5221-1-5-5-3-5"><stop style="stop-color:#918e88;stop-opacity:1" id="stop5223-0-5-4-9-4" offset="0"/><stop style="stop-color:#605c58;stop-opacity:1" id="stop5225-4-3-2-4-6" offset="1"/></linearGradient><linearGradient id="linearGradient5052"><stop style="stop-color:#5e5750;stop-opacity:1" id="stop5054-1" offset="0"/><stop style="stop-color:#756d65;stop-opacity:1" id="stop5056-4" offset="1"/></linearGradient><linearGradient id="linearGradient5010"><stop style="stop-color:#dad7bd;stop-opacity:1" id="stop5012" offset="0"/><stop style="stop-color:#e8e5d4;stop-opacity:1" id="stop5014" offset="1"/></linearGradient><linearGradient id="linearGradient2867-449-88-871-390-598-476-591-434-148-57-177-8-3-3-6-4-8-8-8-8"><stop style="stop-color:#ffcd7d;stop-opacity:1" id="stop3750-1-0-7-6-6-1-3-9-2" offset="0"/><stop style="stop-color:#fc8f36;stop-opacity:1" id="stop3752-3-7-4-0-32-8-923-0-9" offset=".262"/><stop style="stop-color:#e23a0e;stop-opacity:1" id="stop3754-1-8-5-2-7-6-7-1-9" offset=".705"/><stop style="stop-color:#ac441f;stop-opacity:1" id="stop3756-1-6-2-6-6-1-96-6-7" offset="1"/></linearGradient><radialGradient id="radialGradient3093-0-3-6-6-3" cx="23.896" cy="3.99" r="20.397" gradientTransform="matrix(0,1.2316483,-1.625754,0,18.486966,-28.721977)" gradientUnits="userSpaceOnUse"><stop style="stop-color:#fff;stop-opacity:1" id="stop3244-9-33-7-0-9-7" offset="0"/><stop style="stop-color:#ddd;stop-opacity:1" id="stop3246-3-5-0-8-5-5" offset=".262"/><stop style="stop-color:#abacae;stop-opacity:1" id="stop3248-1-7-8-8-1-3" offset=".661"/><stop style="stop-color:#89898b;stop-opacity:1" id="stop3250-9-3-0-5-1-2" offset="1"/></radialGradient><linearGradient id="linearGradient4945" x1="-5.907" x2="-5.976" y1="31.807" y2="40.021" gradientTransform="matrix(2.9131284,0,0,2.9436435,62.564321,-70.73896)" gradientUnits="userSpaceOnUse" xlink:href="#linearGradient5221-1-5-5-3-5"/><linearGradient id="linearGradient4953" x1="55.771" x2="55.771" y1="-51.253" y2="-22.753" gradientUnits="userSpaceOnUse" xlink:href="#linearGradient5010"/><linearGradient id="linearGradient4961" x1="68" x2="68" y1="-52" y2="-20" gradientUnits="userSpaceOnUse" xlink:href="#linearGradient5052"/><linearGradient id="linearGradient5087" x1="23.98" x2="23.98" y1="6.186" y2="41.822" gradientTransform="matrix(1.0541946,0,0,0.72958856,15.720408,15.487087)" gradientUnits="userSpaceOnUse" xlink:href="#linearGradient5089"/></defs><metadata id="metadata4439"/><g id="layer1" transform="translate(0,64)"><path style="color:#000;display:inline;overflow:visible;visibility:visible;opacity:.2;fill:url(#radialGradient4432);fill-opacity:1;fill-rule:nonzero;stroke:none;stroke-width:1;marker:none;enable-background:accumulate" id="path3041" d="m 119,54.00181 c -0.005,3.313287 -24.628224,5.998912 -54.999999,5.998912 -30.371775,0 -54.9945047,-2.685625 -54.9999992,-5.998912 -0.0055,-3.314135 24.6204532,-6.001083 54.9999992,-6.001083 30.379546,0 55.005499,2.686948 54.999999,6.001083 z"/><g id="g3712" transform="matrix(2.8421052,0,0,0.71428566,-4.2105333,23.430384)" style="opacity:.4"><rect id="rect2801" width="5" height="7" x="38" y="40" style="fill:url(#radialGradient4093);fill-opacity:1;stroke:none"/><rect id="rect3696" width="5" height="7" x="-10" y="-47" transform="scale(-1,-1)" style="fill:url(#radialGradient4095);fill-opacity:1;stroke:none"/><rect id="rect3700" width="28" height="7" x="10" y="40" style="fill:url(#linearGradient4097);fill-opacity:1;stroke:none"/></g><rect style="color:#000;display:inline;overflow:visible;visibility:visible;fill:url(#radialGradient3044);fill-opacity:1;fill-rule:nonzero;stroke:none;stroke-width:.99999994;marker:none;enable-background:accumulate" id="rect5505-21-3" width="102" height="113" x="13" y="-59" rx="4.5" ry="4.5"/><g id="g4942" transform="translate(47,0)"><rect style="color:#000;display:inline;overflow:visible;visibility:visible;opacity:.05;fill:none;stroke:#000;stroke-width:1;stroke-linecap:round;stroke-linejoin:round;stroke-miterlimit:4;stroke-dasharray:none;stroke-dashoffset:0;stroke-opacity:1;marker:none;enable-background:accumulate" id="rect5440" width="41" height="29" x="20.521" y="19.497" rx="2.05" ry="2.071"/><rect id="rect4944" width="41" height="29" x="20.521" y="18.497" rx="2.05" ry="2.071" style="color:#000;display:inline;overflow:visible;visibility:visible;fill:url(#linearGradient4950);fill-opacity:1;fill-rule:nonzero;stroke:none;stroke-width:.99999994;marker:none;enable-background:accumulate"/><rect id="rect4946" width="39.005" height="26.995" x="21.518" y="19.5" ry="1.207" style="opacity:.4;fill:none;stroke:url(#linearGradient4952);stroke-width:.99999994;stroke-linecap:round;stroke-linejoin:round;stroke-miterlimit:4;stroke-dasharray:none;stroke-dashoffset:0;stroke-opacity:1"/><rect id="rect4948" width="41" height="29" x="20.521" y="18.497" rx="2.05" ry="2.071" style="color:#000;display:inline;overflow:visible;visibility:visible;opacity:.4;fill:none;stroke:#640000;stroke-width:1;stroke-linecap:round;stroke-linejoin:round;stroke-miterlimit:4;stroke-dasharray:none;stroke-dashoffset:0;stroke-opacity:1;marker:none;enable-background:accumulate"/></g><rect style="fill:none;stroke:url(#linearGradient4136);stroke-width:.99999994;stroke-linecap:round;stroke-linejoin:round;stroke-miterlimit:4;stroke-dasharray:none;stroke-dashoffset:0;stroke-opacity:1;opacity:.8" id="rect6741-7" width="101" height="112" x="13.5" y="-58.498" rx="4" ry="4"/><rect style="color:#000;display:inline;overflow:visible;visibility:visible;opacity:.4;fill:none;stroke:#000;stroke-width:.99999976;stroke-linecap:butt;stroke-linejoin:miter;stroke-miterlimit:4;stroke-dasharray:none;stroke-dashoffset:0;stroke-opacity:1;marker:none;enable-background:accumulate" id="rect5505-21-3-1" width="103" height="114" x="12.5" y="-59.498" rx="5" ry="5"/><g id="g4933" transform="translate(-1,0)"><rect id="rect5126" width="41" height="29" x="20.521" y="19.497" rx="2.05" ry="2.071" style="color:#000;display:inline;overflow:visible;visibility:visible;opacity:.05;fill:none;stroke:#000;stroke-width:1;stroke-linecap:round;stroke-linejoin:round;stroke-miterlimit:4;stroke-dasharray:none;stroke-dashoffset:0;stroke-opacity:1;marker:none;enable-background:accumulate"/><rect style="color:#000;display:inline;overflow:visible;visibility:visible;fill:url(#linearGradient4945);fill-opacity:1;fill-rule:nonzero;stroke:none;stroke-width:.99999994;marker:none;enable-background:accumulate" id="rect5505-21-0-8-7-1" width="41" height="29" x="20.521" y="18.497" rx="2.05" ry="2.071"/><rect style="opacity:.4;fill:none;stroke:url(#linearGradient5087);stroke-width:.99999994;stroke-linecap:round;stroke-linejoin:round;stroke-miterlimit:4;stroke-dasharray:none;stroke-dashoffset:0;stroke-opacity:1" id="rect6741-1-2-7-8" width="39.005" height="26.995" x="21.518" y="19.5" ry="1.149"/><rect style="color:#000;display:inline;overflow:visible;visibility:visible;opacity:.4;fill:none;stroke:#000;stroke-width:1;stroke-linecap:round;stroke-linejoin:round;stroke-miterlimit:4;stroke-dasharray:none;stroke-dashoffset:0;stroke-opacity:1;marker:none;enable-background:accumulate" id="rect5505-21-3-2-3-9-7-0" width="41" height="29" x="20.521" y="18.497" rx="2.05" ry="2.071"/></g><use id="use4938" width="100%" height="100%" x="0" y="0" transform="translate(0,-34)" xlink:href="#g4933"/><use id="use4940" width="100%" height="100%" x="0" y="0" transform="translate(48,-34)" xlink:href="#g4933"/><path id="rect5156" d="m 21.571263,-51.503342 84.899627,0 c 1.13569,0 2.04998,0.923868 2.04998,2.071453 l 0,24.857436 c 0,1.147585 -0.91429,2.070257 -2.04998,2.071453 -21.266818,0.02239 -56.585347,3.89e-4 -84.899627,0 -1.135688,-1.6e-5 -2.049979,-0.923868 -2.049979,-2.071453 l 0,-24.857436 c 0,-1.147585 0.914291,-2.071453 2.049979,-2.071453 z" style="color:#000;display:inline;overflow:visible;visibility:visible;opacity:.4;fill:none;stroke:url(#linearGradient5190);stroke-width:3;stroke-linecap:round;stroke-linejoin:round;stroke-miterlimit:4;stroke-dasharray:none;stroke-dashoffset:0;stroke-opacity:1;marker:none;enable-background:accumulate"/><path id="rect5158" d="m 21.571263,-51.502953 84.899627,0 c 1.13569,0 2.04998,0.923868 2.04998,2.071453 l 0,24.857436 c 0,1.147585 -0.91429,2.071453 -2.04998,2.071453 l -84.899627,0 c -1.135688,0 -2.049979,-0.923868 -2.049979,-2.071453 l 0,-24.857436 c 0,-1.147585 0.914291,-2.071453 2.049979,-2.071453 z" style="color:#000;display:inline;overflow:visible;visibility:visible;fill:url(#linearGradient4953);fill-opacity:1;fill-rule:nonzero;stroke:none;stroke-width:.99999994;marker:none;enable-background:accumulate"/><path id="rect5160" d="m 21.667525,-50.500168 84.707105,0 c 0.63657,0 1.14905,0.512476 1.14905,1.149049 l 0,24.696678 c 0,0.636573 -0.51248,1.149049 -1.14905,1.149049 l -84.707105,0 c -0.636573,0 -1.149049,-0.512476 -1.149049,-1.149049 l 0,-24.696678 c 0,-0.636573 0.512476,-1.149049 1.149049,-1.149049 z" style="opacity:.05;fill:none;stroke:url(#linearGradient5182);stroke-width:.99999994;stroke-linecap:round;stroke-linejoin:round;stroke-miterlimit:4;stroke-dasharray:none;stroke-dashoffset:0;stroke-opacity:1"/><path id="rect5162" d="m 21.571263,-51.502953 84.899627,0 c 1.13569,0 2.04998,0.923868 2.04998,2.071453 l 0,24.857436 c 0,1.147585 -0.91429,2.071453 -2.04998,2.071453 l -84.899627,0 c -1.135688,0 -2.049979,-0.923868 -2.049979,-2.071453 l 0,-24.857436 c 0,-1.147585 0.914291,-2.071453 2.049979,-2.071453 z" style="color:#000;display:inline;overflow:visible;visibility:visible;opacity:.7;fill:none;stroke:url(#linearGradient4961);stroke-width:1;stroke-linecap:round;stroke-linejoin:round;stroke-miterlimit:4;stroke-dasharray:none;stroke-dashoffset:0;stroke-opacity:1;marker:none;enable-background:accumulate"/><path id="path5447" d="m 69.852792,-44.576595 c -0.763805,0 -1.518495,0.129813 -2.263671,0.390625 -0.745176,0.254601 -1.382323,0.602073 -1.910157,1.042969 l 0.457031,0.625 c 0.695498,-0.459526 1.321978,-0.782456 1.88086,-0.96875 0.558883,-0.192504 1.176648,-0.289063 1.853516,-0.289063 0.869372,0 1.571425,0.229927 2.105468,0.689453 0.540253,0.453316 0.810547,1.05881 0.810547,1.816407 0,0.91905 -0.331644,1.647247 -0.996094,2.1875 -0.658238,0.534043 -1.554651,0.85571 -2.683593,0.802734 l -1.490235,0 0,0.892578 1.472657,0 c 1.366156,0 2.399854,0.242198 3.101562,0.726562 0.707917,0.484365 1.060547,1.177704 1.060547,2.078126 0,1.012198 -0.343915,1.796586 -1.033203,2.355468 -0.689288,0.552673 -1.71943,0.830078 -3.091797,0.830078 -0.571302,0 -1.183909,-0.07718 -1.835938,-0.232422 -0.64582,-0.155244 -1.230329,-0.369346 -1.751953,-0.642578 l 0,0.921875 c 1.030828,0.515414 2.240214,0.773438 3.625,0.773438 1.626968,0 2.871213,-0.349424 3.734375,-1.044922 0.869373,-0.701708 1.304688,-1.687928 1.304688,-2.960937 0,-0.943891 -0.28612,-1.695025 -0.857422,-2.253907 -0.571302,-0.558882 -1.403169,-0.906353 -2.496094,-1.042969 l 0,-0.05664 c 0.894212,-0.161455 1.604979,-0.531864 2.132813,-1.109375 0.534042,-0.577511 0.800781,-1.288279 0.800781,-2.132813 0,-1.080506 -0.34036,-1.915928 -1.023438,-2.505859 -0.683078,-0.596141 -1.65187,-0.892578 -2.90625,-0.892578 z m 28.488654,0.191024 -6.753907,9.174173 0,0.623047 7.00586,0 0,4.129425 0.875041,0 0,-4.129425 2.14987,0 0,-0.800782 -2.14987,0 0,-8.996438 z m -12.701544,0.07422 -3.697266,2.765625 0.53125,0.66211 c 1.819472,-1.422045 2.777596,-2.176735 2.876953,-2.263672 0.09936,-0.08694 0.195916,-0.176384 0.289063,-0.269531 -0.07452,0.968729 -0.111328,1.902313 -0.111328,2.802734 l 0,10.155161 0.912109,0 0,-13.852427 z m 13.008184,0.726563 0.07422,0 c -0.08694,1.273009 -0.128906,2.847296 -0.128906,4.722656 l 0,3.473001 -5.896485,0 4.806641,-6.445657 c 0.639609,-0.93768 1.020335,-1.520237 1.14453,-1.75 z m -20.849981,10.832376 c -0.496784,0 -0.746094,0.303549 -0.746094,0.912109 0,0.608561 0.24931,0.914063 0.746094,0.914063 0.509204,0 0.763672,-0.305502 0.763672,-0.914063 0,-0.60856 -0.254468,-0.912109 -0.763672,-0.912109 z" style="font-style:normal;font-variant:normal;font-weight:300;font-stretch:normal;font-size:medium;line-height:125%;font-family:'Open Sans';-inkscape-font-specification:'Open Sans Light';letter-spacing:0;word-spacing:0;fill:#5b5b5b;fill-opacity:1;stroke:#5f5f5f;stroke-width:1px;stroke-linecap:butt;stroke-linejoin:miter;stroke-opacity:1"/><path style="color:#000;font-style:normal;font-variant:normal;font-weight:400;font-stretch:normal;font-size:medium;line-height:normal;font-family:sans-serif;text-indent:0;text-align:start;text-decoration:none;text-decoration-line:none;text-decoration-style:solid;text-decoration-color:#000;letter-spacing:normal;word-spacing:normal;text-transform:none;direction:ltr;block-progression:tb;writing-mode:lr-tb;baseline-shift:baseline;text-anchor:start;white-space:normal;clip-rule:nonzero;display:inline;overflow:visible;visibility:visible;opacity:.2;isolation:auto;mix-blend-mode:normal;color-interpolation:sRGB;color-interpolation-filters:linearRGB;solid-color:#000;solid-opacity:1;fill:#000;fill-opacity:1;fill-rule:evenodd;stroke:none;stroke-width:2;stroke-linecap:butt;stroke-linejoin:miter;stroke-miterlimit:4;stroke-dasharray:none;stroke-dashoffset:0;stroke-opacity:1;color-rendering:auto;image-rendering:auto;shape-rendering:auto;text-rendering:auto;enable-background:accumulate" id="path5245" d="m 33,27 0,1 c 4e-5,0.265201 0.105423,0.519526 0.292969,0.707031 L 38.585938,34 33.292969,39.29297 C 33.105424,39.48048 33.00004,39.7348 33,40 l 0,1 1,0 c 0.265201,-4e-5 0.519526,-0.10542 0.707031,-0.29297 L 40,35.414062 45.283203,40.69727 C 45.471468,40.89081 45.729997,41 46,41 l 1,0 0,-1 c -4e-5,-0.2652 -0.105424,-0.51952 -0.292969,-0.70703 L 41.414062,34 46.697266,28.716797 C 46.890808,28.528532 46.999996,28.270004 47,28 l 0,-1 -1,0 c -0.265201,4e-5 -0.519526,0.105423 -0.707031,0.292969 L 40,32.585938 34.716797,27.302734 C 34.528532,27.109192 34.270004,27.000004 34,27 Z"/><path id="path5192" d="m 33,26 0,1 c 4e-5,0.265201 0.105423,0.519526 0.292969,0.707031 L 38.585938,33 33.292969,38.29297 C 33.105424,38.48048 33.00004,38.7348 33,39 l 0,1 1,0 c 0.265201,-4e-5 0.519526,-0.10542 0.707031,-0.29297 L 40,34.414062 45.283203,39.69727 C 45.471468,39.89081 45.729997,40 46,40 l 1,0 0,-1 c -4e-5,-0.2652 -0.105424,-0.51952 -0.292969,-0.70703 L 41.414062,33 46.697266,27.716797 C 46.890808,27.528532 46.999996,27.270004 47,27 l 0,-1 -1,0 c -0.265201,4e-5 -0.519526,0.105423 -0.707031,0.292969 L 40,31.585938 34.716797,26.302734 C 34.528532,26.109192 34.270004,26.000004 34,26 Z" style="color:#000;font-style:normal;font-variant:normal;font-weight:400;font-stretch:normal;font-size:medium;line-height:normal;font-family:sans-serif;text-indent:0;text-align:start;text-decoration:none;text-decoration-line:none;text-decoration-style:solid;text-decoration-color:#000;letter-spacing:normal;word-spacing:normal;text-transform:none;direction:ltr;block-progression:tb;writing-mode:lr-tb;baseline-shift:baseline;text-anchor:start;white-space:normal;clip-rule:nonzero;display:inline;overflow:visible;visibility:visible;opacity:1;isolation:auto;mix-blend-mode:normal;color-interpolation:sRGB;color-interpolation-filters:linearRGB;solid-color:#000;solid-opacity:1;fill:#fff;fill-opacity:1;fill-rule:evenodd;stroke:none;stroke-width:2;stroke-linecap:butt;stroke-linejoin:miter;stroke-miterlimit:4;stroke-dasharray:none;stroke-dashoffset:0;stroke-opacity:1;color-rendering:auto;image-rendering:auto;shape-rendering:auto;text-rendering:auto;enable-background:accumulate"/><path style="opacity:.2;fill:#000;fill-opacity:1;stroke:none;stroke-width:2;stroke-linecap:butt;stroke-linejoin:miter;stroke-miterlimit:4;stroke-dasharray:none;stroke-opacity:1" id="path5247" d="m 39,-8 0,7 -7,0 0,2 7,0 0,7 2,0 0,-7 7,0 0,-2 -7,0 0,-7 z"/><path id="rect5233" d="m 39,-9 0,7 -7,0 0,2 7,0 0,7 2,0 0,-7 7,0 0,-2 -7,0 0,-7 z" style="opacity:1;fill:#fff;fill-opacity:1;stroke:none;stroke-width:2;stroke-linecap:butt;stroke-linejoin:miter;stroke-miterlimit:4;stroke-dasharray:none;stroke-opacity:1"/><path id="path5249" d="m 87,-1 0.02108,0 -7,0 0,2 7,0 L 87,1 l 2,0 0.02108,0 7,0 -4e-6,-2 -7,0 L 89,-1 Z" style="opacity:.2;fill:#000;fill-opacity:1;stroke:none;stroke-width:2;stroke-linecap:butt;stroke-linejoin:miter;stroke-miterlimit:4;stroke-dasharray:none;stroke-opacity:1"/><path style="opacity:1;fill:#fff;fill-opacity:1;stroke:none;stroke-width:2;stroke-linecap:butt;stroke-linejoin:miter;stroke-miterlimit:4;stroke-dasharray:none;stroke-opacity:1" id="path5239" d="m 87,-2 0.02108,0 -7,0 0,2.000000030000002 7,0 L 87,0 l 2,0 0.02108,3.0000002e-8 7,0 L 96.021076,-2 l -7,0 L 89,-2 Z"/><path style="opacity:.2;fill:#000;fill-opacity:1;stroke:none;stroke-width:2;stroke-linecap:butt;stroke-linejoin:miter;stroke-miterlimit:4;stroke-dasharray:none;stroke-opacity:1" id="path5251" d="m 87,31 0.02108,0 -7,0 0,2 7,0 L 87,33 l 2,0 0.02108,0 7,0 -4e-6,-2 -7,0 L 89,31 Z"/><path id="path5241" d="m 87,30 0.02108,0 -7,0 0,2 7,0 L 87,32 l 2,0 0.02108,0 7,0 -4e-6,-2 -7,0 L 89,30 Z" style="opacity:1;fill:#fff;fill-opacity:1;stroke:none;stroke-width:2;stroke-linecap:butt;stroke-linejoin:miter;stroke-miterlimit:4;stroke-dasharray:none;stroke-opacity:1"/><path id="path5253" d="m 87,35 0.02108,0 -7,0 0,2 7,0 L 87,37 l 2,0 0.02108,0 7,0 -4e-6,-2 -7,0 L 89,35 Z" style="opacity:.2;fill:#000;fill-opacity:1;stroke:none;stroke-width:2;stroke-linecap:butt;stroke-linejoin:miter;stroke-miterlimit:4;stroke-dasharray:none;stroke-opacity:1"/><path style="opacity:1;fill:#fff;fill-opacity:1;stroke:none;stroke-width:2;stroke-linecap:butt;stroke-linejoin:miter;stroke-miterlimit:4;stroke-dasharray:none;stroke-opacity:1" id="path5243" d="m 87,34 0.02108,0 -7,0 0,2 7,0 L 87,36 l 2,0 0.02108,0 7,0 -4e-6,-2 -7,0 L 89,34 Z"/></g></svg>